# xmcd
#
# Track frame offsets:
#	150
#	15190
#	30869
#	47734
#	63191
#	76169
#	91130
#	109356
#	123541
#	142206
#	156397
#	171794
#	185657
#	200498
#
# Disc length: 2900 seconds
#
# Revision: 0
# Processed by: cddbd v1.5.1PL2 Copyright (c) Steve Scherf et al.
# Submitted via: EasyCDDAExtractor 8.0.2.1
#
DISCID=b50b520e
DTITLE=Various Artist - Mr Music Country  02 2006
DYEAR=1900
DGENRE=Country
TTITLE0=Tommy Wood - Hurt by the best
TTITLE1=Kevin Banford - The last man in Texas
TTITLE2=Katy Moffatt - Wheel
TTITLE3=Mike Bella - Might as well stayed at home
TTITLE4=db Harris and His Men of Action - One more time
TTITLE5=Joe Nichols - To tell the truth I lied
TTITLE6=Suzie Merwine - Can you tell me where to start (to stop loving you)
TTITLE7=Dean Holmen - Rodeo has got my heart
TTITLE8=Bobby Bare - The ballad of Lucy Jordan
TTITLE9=Cheating Hearts w. Marina Uppgren - I don't believe you met me baby
TTITLE10=Chase Mitchell - Red white and true country
TTITLE11=Diana Kelley - A new point of view
TTITLE12=Wonnie Cooper and Walker Ikard - You're just goin' round one time
TTITLE13=Joe Paul Nichols - These old eyes have seen it all
EXTD=
EXTT0=
EXTT1=
EXTT2=
EXTT3=
EXTT4=
EXTT5=
EXTT6=
EXTT7=
EXTT8=
EXTT9=
EXTT10=
EXTT11=
EXTT12=
EXTT13=
PLAYORDER=
